<?xml version="1.0" encoding="UTF-8" standalone="no"?>
<svg
   xmlns:dc="http://purl.org/dc/elements/1.1/"
   xmlns:cc="http://creativecommons.org/ns#"
   xmlns:rdf="http://www.w3.org/1999/02/22-rdf-syntax-ns#"
   xmlns:svg="http://www.w3.org/2000/svg"
   xmlns="http://www.w3.org/2000/svg"
   xmlns:xlink="http://www.w3.org/1999/xlink"
   xmlns:sodipodi="http://sodipodi.sourceforge.net/DTD/sodipodi-0.dtd"
   xmlns:inkscape="http://www.inkscape.org/namespaces/inkscape"
   id="e6acf613-1465-4206-8e97-2c0e8d4b1ea6"
   data-name="Layer 1"
   width="118.28458mm"
   height="190.23251mm"
   viewBox="0 0 447.05982 718.98904"
   version="1.1"
   sodipodi:docname="ATPT-Logo-svg.svg"
   inkscape:version="0.92.4 (5da689c313, 2019-01-14)">
  <metadata
     id="metadata96">
    <rdf:RDF>
      <cc:Work
         rdf:about="">
        <dc:format>image/svg+xml</dc:format>
        <dc:type
           rdf:resource="http://purl.org/dc/dcmitype/StillImage" />
        <dc:title>Logo blue</dc:title>
      </cc:Work>
    </rdf:RDF>
  </metadata>
  <sodipodi:namedview
     pagecolor="#ffffff"
     bordercolor="#666666"
     borderopacity="1"
     objecttolerance="10"
     gridtolerance="10"
     guidetolerance="10"
     inkscape:pageopacity="0"
     inkscape:pageshadow="2"
     inkscape:window-width="1366"
     inkscape:window-height="706"
     id="namedview94"
     showgrid="false"
     units="mm"
     inkscape:zoom="2.3757409"
     inkscape:cx="189.59481"
     inkscape:cy="255.89216"
     inkscape:window-x="-8"
     inkscape:window-y="-8"
     inkscape:window-maximized="1"
     inkscape:current-layer="text844"
     fit-margin-top="0"
     fit-margin-left="0"
     fit-margin-right="0"
     fit-margin-bottom="0" />
  <defs
     id="defs33">
    <linearGradient
       id="e7432531-051f-4229-a0a7-c46f90e1c00c"
       x1="148.90523"
       y1="794.69946"
       x2="148.90523"
       y2="65.633728"
       gradientUnits="userSpaceOnUse">
      <stop
         offset="0"
         stop-color="gray"
         stop-opacity="0.25"
         id="stop2" />
      <stop
         offset="0.53514"
         stop-color="gray"
         stop-opacity="0.12"
         id="stop4" />
      <stop
         offset="1"
         stop-color="gray"
         stop-opacity="0.1"
         id="stop6" />
    </linearGradient>
    <linearGradient
       id="b47202c6-c1c9-40b8-92af-db2c55bf8bd1"
       x1="446.7157"
       y1="794.69946"
       x2="446.7157"
       y2="65.633728"
       xlink:href="#e7432531-051f-4229-a0a7-c46f90e1c00c" />
    <linearGradient
       id="adbec034-83c8-4647-bb3b-2a01b75562b1"
       x1="741.60571"
       y1="794.69946"
       x2="741.60571"
       y2="65.633728"
       xlink:href="#e7432531-051f-4229-a0a7-c46f90e1c00c" />
    <linearGradient
       id="eb6a4cdb-41e1-4fe3-bddb-eac7508f621d"
       x1="889.89996"
       y1="291.93723"
       x2="889.89996"
       y2="71.206444"
       gradientUnits="userSpaceOnUse">
      <stop
         offset="0"
         stop-color="#b3b3b3"
         stop-opacity="0.25"
         id="stop11" />
      <stop
         offset="0.53514"
         stop-color="#b3b3b3"
         stop-opacity="0.1"
         id="stop13" />
      <stop
         offset="1"
         stop-color="#b3b3b3"
         stop-opacity="0.05"
         id="stop15" />
    </linearGradient>
    <linearGradient
       id="f829b744-a02a-4a2c-9fed-3f5da7d4212f"
       x1="733.69525"
       y1="105.86015"
       x2="733.69525"
       y2="63.031792"
       gradientUnits="userSpaceOnUse">
      <stop
         offset="0"
         stop-opacity="0.12"
         id="stop18" />
      <stop
         offset="0.55135"
         stop-opacity="0.09"
         id="stop20" />
      <stop
         offset="1"
         stop-opacity="0.02"
         id="stop22" />
    </linearGradient>
    <linearGradient
       id="ae45afba-725c-45f7-9e29-49ac6fec796e"
       x1="311.14621"
       y1="736.28094"
       x2="311.14621"
       y2="513.98981"
       xlink:href="#eb6a4cdb-41e1-4fe3-bddb-eac7508f621d" />
    <linearGradient
       id="f4c06303-04ff-41d3-ad1f-a3b84d982f8e"
       x1="154.94147"
       y1="549.26068"
       x2="154.94147"
       y2="506.12958"
       gradientUnits="userSpaceOnUse">
      <stop
         offset="0.00541"
         stop-opacity="0.12"
         id="stop26" />
      <stop
         offset="0.55135"
         stop-opacity="0.09"
         id="stop28" />
      <stop
         offset="1"
         stop-opacity="0.05"
         id="stop30" />
    </linearGradient>
  </defs>
  <title
     id="title35">Logo blue</title>
  <g
     inkscape:groupmode="layer"
     id="layer2"
     inkscape:label="Icon"
     transform="translate(-162.20091,183.1231)"
     style="display:inline"
     sodipodi:insensitive="true">
    <path
       d="m 586.11627,111.79452 c 0,110.6697 -200.3854,424.0714 -200.3854,424.0714 0,0 -200.38551,-313.4016 -200.38551,-424.0714 a 200.38542,200.38542 0 1 1 400.77081,0 z"
       id="path89"
       inkscape:connector-curvature="0"
       style="display:inline;fill:#3366cc;stroke-width:3.16678858"
       inkscape:export-xdpi="300"
       inkscape:export-ydpi="300" />
    <path
       style="color:#000000;font-style:normal;font-variant:normal;font-weight:normal;font-stretch:normal;font-size:medium;line-height:normal;font-family:sans-serif;font-variant-ligatures:normal;font-variant-position:normal;font-variant-caps:normal;font-variant-numeric:normal;font-variant-alternates:normal;font-feature-settings:normal;text-indent:0;text-align:start;text-decoration:none;text-decoration-line:none;text-decoration-style:solid;text-decoration-color:#000000;letter-spacing:normal;word-spacing:normal;text-transform:none;writing-mode:lr-tb;direction:ltr;text-orientation:mixed;dominant-baseline:auto;baseline-shift:baseline;text-anchor:start;white-space:normal;shape-padding:0;clip-rule:nonzero;display:inline;overflow:visible;visibility:visible;opacity:1;isolation:auto;mix-blend-mode:normal;color-interpolation:sRGB;color-interpolation-filters:linearRGB;solid-color:#000000;solid-opacity:1;vector-effect:none;fill:#6699ff;fill-opacity:1;fill-rule:nonzero;stroke:none;stroke-width:34.83892441;stroke-linecap:butt;stroke-linejoin:miter;stroke-miterlimit:4;stroke-dasharray:none;stroke-dashoffset:0;stroke-opacity:1;color-rendering:auto;image-rendering:auto;shape-rendering:auto;text-rendering:auto;enable-background:accumulate"
       d="m 388.11151,-136.57411 c -45.44386,0.25603 -90.18285,12.74636 -124.55926,32.48676 -48.2533,27.70912 -73.67929,67.16408 -91.7412,92.44684 l 29.83984,18.30273 c 16.32932,-22.42517 37.83705,-56.75698 79.25097,-80.53863 58.65605,-33.68282 148.24424,-44.89129 224.71746,9.57769 24.64984,17.55715 43.92579,39.57537 66.13086,74.32422 l 27.90039,-21 c -23.25384,-35.94025 -45.43142,-61.48083 -73.82031,-81.70117 -44.33945,-31.58132 -92.2749,-44.15447 -137.71875,-43.89844 z"
       id="path4121"
       inkscape:connector-curvature="0"
       sodipodi:nodetypes="ssccssccss"
       inkscape:export-xdpi="300"
       inkscape:export-ydpi="300" />
    <path
       sodipodi:nodetypes="ssccssccss"
       inkscape:connector-curvature="0"
       id="path4964"
       d="m 387.0572,-178.03785 c -45.45939,0.18491 -90.2137,9.20532 -124.60187,23.46165 -48.2698,20.01129 -73.70451,48.5053 -91.7726,66.764291 l 25.64084,13.218068 c 16.33492,-16.195257 42.21648,-40.614869 83.48733,-58.164289 59.76372,-25.41306 149.45179,-33.57692 224.79434,6.91693 24.42326,13.1266 48.15004,27.739132 70.36269,52.834446 l 26.22625,-14.324169 c -23.26178,-25.955737 -47.97249,-44.400917 -76.37109,-59.003857 -44.35463,-22.80775 -92.30648,-31.88795 -137.76589,-31.70307 z"
       style="color:#000000;font-style:normal;font-variant:normal;font-weight:normal;font-stretch:normal;font-size:medium;line-height:normal;font-family:sans-serif;font-variant-ligatures:normal;font-variant-position:normal;font-variant-caps:normal;font-variant-numeric:normal;font-variant-alternates:normal;font-feature-settings:normal;text-indent:0;text-align:start;text-decoration:none;text-decoration-line:none;text-decoration-style:solid;text-decoration-color:#000000;letter-spacing:normal;word-spacing:normal;text-transform:none;writing-mode:lr-tb;direction:ltr;text-orientation:mixed;dominant-baseline:auto;baseline-shift:baseline;text-anchor:start;white-space:normal;shape-padding:0;clip-rule:nonzero;display:inline;overflow:visible;visibility:visible;opacity:1;isolation:auto;mix-blend-mode:normal;color-interpolation:sRGB;color-interpolation-filters:linearRGB;solid-color:#000000;solid-opacity:1;vector-effect:none;fill:#6699ff;fill-opacity:1;fill-rule:nonzero;stroke:#6699ff;stroke-width:10.1649828;stroke-linecap:butt;stroke-linejoin:miter;stroke-miterlimit:4;stroke-dasharray:none;stroke-dashoffset:0;stroke-opacity:1;color-rendering:auto;image-rendering:auto;shape-rendering:auto;text-rendering:auto;enable-background:accumulate"
       inkscape:export-xdpi="300"
       inkscape:export-ydpi="300" />
  </g>
  <g
     inkscape:groupmode="layer"
     id="layer4"
     inkscape:label="Text"
     style="display:inline">
    <g
       aria-label="ATPT"
       transform="translate(-162.20091,183.1231)"
       style="font-style:normal;font-variant:normal;font-weight:normal;font-stretch:normal;font-size:40px;line-height:1.25;font-family:monoMMM_5;-inkscape-font-specification:monoMMM_5;letter-spacing:0px;word-spacing:0px;display:inline;fill:#ffffff;fill-opacity:1;stroke:#ffffff;stroke-width:5;stroke-miterlimit:4;stroke-dasharray:none"
       id="text844">
      <g
         id="g46">
        <path
           id="path39"
           style="font-size:88px;stroke:#ffffff;stroke-width:5;stroke-miterlimit:4;stroke-dasharray:none;fill:#ffffff"
           d="m 322.2612,282.85919 h -9.77777 v -19.55555 h -29.33334 v 19.55555 h -9.77778 V 233.9703 q 0,-8.01777 5.76889,-13.78666 5.76889,-5.76889 13.78667,-5.76889 h 9.77778 q 8.01778,0 13.78666,5.76889 5.76889,5.76889 5.76889,13.78666 z m -9.77777,-29.33333 V 233.9703 q 0,-4.00889 -2.93334,-6.84444 -2.83555,-2.93333 -6.84444,-2.93333 h -9.77778 q -4.00889,0 -6.94222,2.93333 -2.83556,2.83555 -2.83556,6.84444 v 19.55556 z" />
        <path
           id="path41"
           style="font-size:88px;stroke:#ffffff;stroke-width:5;stroke-miterlimit:4;stroke-dasharray:none;fill:#ffffff"
           d="m 380.87058,224.19253 h -19.55556 v 58.66666 h -9.77777 v -58.66666 h -19.55556 v -9.77778 h 48.88889 z" />
        <path
           id="path43"
           style="font-size:88px;stroke:#ffffff;stroke-width:5;stroke-miterlimit:4;stroke-dasharray:none;fill:#ffffff"
           d="m 439.47995,233.9703 q 0,8.01778 -5.76889,13.78667 -5.76888,5.76889 -13.78666,5.76889 h -19.55556 v 29.33333 h -9.77778 v -68.44444 h 29.33334 q 8.11555,0 13.78666,5.76889 5.76889,5.67111 5.76889,13.78666 z m -9.77777,0 q 0,-4.00889 -2.93334,-6.84444 -2.83555,-2.93333 -6.84444,-2.93333 h -19.55556 v 19.55555 h 19.55556 q 4.00889,0 6.84444,-2.83555 2.93334,-2.93334 2.93334,-6.94223 z" />
        <path
           id="path45"
           style="font-size:88px;stroke:#ffffff;stroke-width:5;stroke-miterlimit:4;stroke-dasharray:none;fill:#ffffff"
           d="m 498.08933,224.19253 h -19.55556 v 58.66666 H 468.756 v -58.66666 h -19.55556 v -9.77778 h 48.88889 z" />
      </g>
    </g>
  </g>
  <g
     inkscape:groupmode="layer"
     id="layer1"
     inkscape:label="Bus"
     transform="translate(-162.20091,183.1231)"
     style="display:inline"
     sodipodi:insensitive="true">
    <g
       id="g3820"
       style="fill:#ffffff"
       transform="matrix(0.21549986,0,0,0.21549986,-23.86154,13.80414)">
      <path
         style="fill:#ffffff;fill-opacity:1;stroke-width:1.33333337"
         d="m 1457.8882,772.13112 -34.7198,-0.1134 -6.6667,-1.6233 -6.6667,-1.6234 -6.5713,-3.2632 -6.5714,-3.2633 -7.0831,-6.4559 -7.083,-6.456 -5.0122,-10.1355 -5.0123,-10.1356 -0.4141,-34.2509 -0.4141,-34.25092 -8.2526,-1.61714 -8.2525,-1.61715 -6.9969,-3.30247 -6.9969,-3.30245 -7.3242,-6.69392 -7.3242,-6.69391 -4.6611,-9.54406 -4.661,-9.54407 -1.3989,-9.33334 -1.3989,-9.33333 0.4691,-261.33334 0.4692,-261.33334 2.3033,-11.33333 2.3034,-11.33333 4.1054,-12.00001 4.1054,-12 4.6479,-9.33333 4.6479,-9.33333 7.479,-11.33334 7.4791,-11.33333 12.7095,-12.66667 12.7096,-12.66666 10.1506,-6.95352 10.1507,-6.95352 11.8493,-5.92338 11.8493,-5.92336 12.6667,-3.97769 12.6667,-3.97771 10,-1.81208 10,-1.81208 h 188 188 l 11.6998,2.38255 11.6999,2.38253 11.6334,4.10412 11.6335,4.10412 9.3334,4.65808 9.3333,4.6581 11.1294,7.35937 11.1295,7.35937 11.0218,10.82922 11.0219,10.82921 8.2779,11.2448 8.278,11.2448 6.5132,13.42187 6.5133,13.42186 3.4445,10.66667 3.4445,10.66667 2.1948,10.66667 2.1948,10.66666 0.4644,261.33334 0.4644,261.33334 -1.3974,9.33333 -1.3973,9.33334 -4.6611,9.54407 -4.6611,9.54406 -7.3242,6.69391 -7.3242,6.69392 -6.9969,3.30245 -6.9969,3.30247 -8.2525,1.61715 -8.2526,1.61714 -0.4141,34.25092 -0.4141,34.2509 -5.0122,10.1356 -5.0123,10.1355 -7.0693,6.456 -7.0693,6.4559 -7.2518,3.5388 -7.2518,3.5388 -8,1.5649 -8,1.5649 -36,-0.4692 -36,-0.4692 -7.3029,-2.9548 -7.3029,-2.9549 -7.115,-4.9003 -7.1151,-4.9003 -5.2181,-7.2871 -5.2182,-7.287 -2.9835,-7.4923 -2.9835,-7.4923 -0.483,-32.99999 -0.4829,-33 h -109.2308 -109.2307 v 29.26771 29.26768 l -1.4783,7.0657 -1.4783,7.0656 -4.1803,7.9285 -4.1804,7.9285 -6.0862,6.0715 -6.0862,6.0715 -6.6883,3.6228 -6.6883,3.6228 -7.847,2.0438 -7.8469,2.0439 -34.7199,-0.1134 z m -22.7198,-174.24039 6.6667,-0.70763 5.2896,-1.84569 5.2897,-1.8457 5.4537,-3.19609 5.4537,-3.19609 5.5066,-5.97391 5.5065,-5.97391 3.2609,-6.45362 3.2608,-6.45362 1.6022,-7.75529 1.6021,-7.75528 -0.9375,-6.91139 -0.9376,-6.91137 -2.6055,-7.00279 -2.6056,-7.00277 -5.279,-6.67855 -5.2791,-6.67854 -6.9574,-4.5615 -6.9574,-4.56149 -7.8867,-2.24908 -7.8867,-2.24909 -10.1397,0.58697 -10.1397,0.58697 -7.6438,3.49946 -7.6438,3.49944 -7.3517,6.95288 -7.3516,6.95286 -4.3115,8.75791 -4.3115,8.75792 v 13.36136 13.36137 l 4.279,9.03368 4.2791,9.0337 6.6972,6.5233 6.6972,6.52331 7.0238,3.41973 7.0237,3.41972 7.3333,1.20023 7.3334,1.20021 z m 448,0.0329 6.6667,-0.67276 7.033,-2.41392 7.0331,-2.41391 6.4708,-4.75004 6.4709,-4.75004 3.5787,-4.69197 3.5788,-4.69197 3.584,-7.6473 3.584,-7.64728 v -13.36137 -13.36136 l -4.3115,-8.75792 -4.3115,-8.75791 -7.3516,-6.95286 -7.3517,-6.95288 -7.6438,-3.49944 -7.6438,-3.49946 -10.1397,-0.58697 -10.1397,-0.58697 -7.8867,2.26698 -7.8867,2.26699 -6.3667,4.05204 -6.3668,4.05205 -4.6784,5.46566 -4.6784,5.46565 -3.3043,6.75363 -3.3042,6.75361 -1.4744,8.37009 -1.4743,8.37008 1.6083,8.25019 1.6082,8.25017 4.0587,7.64934 4.0587,7.64933 6.5328,6.11059 6.5327,6.1106 7.3313,3.35641 7.3314,3.35641 6.2927,1.05964 6.2927,1.05964 z M 1654.502,429.5779 h 277.3437 l -0.3385,-165 -0.3386,-165 H 1654.502 1377.8353 l -0.3386,165 -0.3385,165 z m -380,-105.78409 -16.6667,0.21589 -4,-0.99284 -4,-0.99285 -4,-2.10402 -4,-2.10402 -3.5145,-3.7857 -3.5144,-3.7857 -2.4856,-4.66667 -2.4855,-4.66667 v -64 -64 l 2.4218,-4.86621 2.4217,-4.86622 4.8209,-4.82085 4.8208,-4.82084 6.6661,-1.97961 6.666,-1.9796 h 17.101 17.101 l -0.343,87 -0.343,87 z m 762.3333,0.20628 -19.6667,0.53513 V 237.05655 149.5779 h 17.0913 17.0914 l 6.8034,2.02041 6.8035,2.02041 6.0209,6.69664 6.0208,6.69666 1.518,6.94961 1.5181,6.9496 -0.4337,60 -0.4337,60 -2.8779,5.33334 -2.8779,5.33333 -3.7888,3.51445 -3.7887,3.51446 -4.6667,2.42906 -4.6667,2.42908 z"
         id="path3822"
         inkscape:connector-curvature="0"
         sodipodi:nodetypes="ccccccccccccccccccccccccccccccccccccccccccccccccccccccccccccccccccccccccccccccccccccccccccccccccccccccccccccccccccccccccccccccccccccccccccccccccccccccccccccccccccccccccccccccccccccccccccccccccccccccccccccccccccccccccccccccccccccccccccccccccccccccc" />
    </g>
  </g>
  <g
     inkscape:groupmode="layer"
     id="layer3"
     inkscape:label="Taxi"
     transform="translate(-162.20091,183.1231)"
     sodipodi:insensitive="true"
     style="display:inline">
    <g
       id="g3985"
       transform="matrix(0.21549986,0,0,0.21549986,-90.6613,-215.69126)"
       style="fill:#ffffff">
      <path
         style="fill:#ffffff;fill-opacity:1;stroke-width:1.33333337"
         d="m 2432.7968,1837.1288 -26.6667,0.2676 -3.342,-1.0654 -3.3419,-1.0655 -3.9914,-2.0884 -3.9914,-2.0883 -4.184,-4.4471 -4.1841,-4.4471 -2.4782,-4.6667 -2.4782,-4.6667 -0.4479,-23 -0.4479,-23 h 53.5537 53.5536 l -0.4524,23 -0.4524,23 -2.8742,5.3334 -2.8743,5.3333 -4.4502,4.1841 -4.4501,4.184 -4.6667,2.4826 -4.6667,2.4826 z m 359.9999,0 -26.6666,0.2676 -3.342,-1.0654 -3.342,-1.0655 -3.9913,-2.0884 -3.9914,-2.0883 -4.1841,-4.4471 -4.184,-4.4471 -2.4782,-4.6667 -2.4782,-4.6667 -0.4479,-23 -0.4479,-23 h 53.5536 53.5537 l -0.4524,23 -0.4524,23 -2.8742,5.3334 -2.8743,5.3333 -4.4502,4.1841 -4.4502,4.184 -4.6666,2.4826 -4.6667,2.4826 z m -179.3333,-89.3925 -240.6666,0.2084 -5.0208,-1.1919 -5.0207,-1.1918 -5.1449,-2.6248 -5.1449,-2.6247 -3.7072,-4.3918 -3.7072,-4.3918 -2.4312,-5.3333 -2.4312,-5.3334 -0.029,-63.3865 -0.029,-63.3865 1.9854,-7.6227 1.9855,-7.6227 3.8923,-7.7106 3.8923,-7.7107 6.1396,-6.8286 6.1396,-6.8287 7.5132,-4.987 7.5133,-4.9871 9.4694,-3.4644 9.4695,-3.4645 h 212.6667 212.6666 l 9.4694,3.4645 9.4694,3.4644 7.5133,4.9871 7.5132,4.987 6.1396,6.8287 6.1396,6.8286 3.8923,7.7107 3.8923,7.7106 1.9855,7.6227 1.9854,7.6227 -0.029,63.3865 -0.029,63.3865 -2.4619,5.4205 -2.462,5.4205 -4.1657,4.7445 -4.1657,4.7445 -7.0097,3.1683 -7.0096,3.1684 z m -163.2941,-73.3413 8.0392,-0.5128 5.5921,-2.8529 5.592,-2.8528 4.8561,-4.8561 4.8562,-4.8562 2.4833,-5.4681 2.4833,-5.4682 0.029,-7.8453 0.029,-7.8453 -1.6319,-5.488 -1.6319,-5.4881 -7.3681,-7.5556 -7.3681,-7.5556 -7.8692,-2.2645 -7.8691,-2.2646 -5.9184,0.8112 -5.9183,0.8112 -5.5458,2.4949 -5.5459,2.4948 -4.9115,4.9812 -4.9116,4.9813 -2.313,4.8662 -2.313,4.8662 -0.6046,6.2592 -0.6046,6.2591 0.8904,5.9382 0.8905,5.9381 4.1401,6.2504 4.1401,6.2504 5.0689,3.3544 5.0688,3.3544 5.0631,1.8878 5.0631,1.8879 8.0392,-0.5128 z m 325.4759,-0.075 8.1818,-0.4605 6.9163,-3.7643 6.9162,-3.7643 4.0937,-5.1687 4.0936,-5.1686 1.7498,-4.8994 1.7498,-4.8994 0.059,-7.1787 0.059,-7.1786 -1.6319,-5.4881 -1.6318,-5.488 -7.3682,-7.5556 -7.3681,-7.5556 -7.8691,-2.2645 -7.8692,-2.2646 -5.9183,0.8112 -5.9184,0.8112 -5.6389,2.4944 -5.639,2.4944 -4.7996,4.942 -4.7996,4.9419 -2.4406,4.906 -2.4406,4.9059 v 11.4379 11.4379 l 4.0388,6.5621 4.0389,6.5621 6.4474,4.3348 6.4474,4.3349 4.1804,1.2913 4.1804,1.2914 8.1818,-0.4605 z m -340.9544,-160.7919 h -17.2274 v -1.8351 -1.835 l 8.5706,-59.5616 8.5706,-59.5615 3.9821,-8.5095 3.9821,-8.5096 5.6172,-6.0939 5.6172,-6.094 8.8021,-4.3332 8.8021,-4.3333 h 139.3613 139.3614 l 7.5668,3.5472 7.5669,3.5472 5.86,5.4016 5.8601,5.4016 3.4553,6.3846 3.4553,6.3845 2.0809,7.3333 2.0809,7.3334 8.0369,55.8493 8.0369,55.8494 v 1.8173 1.8173 h -17.2274 -17.2274 l -0.7354,-3.6667 -0.7354,-3.6666 -7.4611,-52.5641 -7.4612,-52.564 -2.5804,-5.0581 -2.5804,-5.058 -2.5747,-1.3779 -2.5746,-1.3779 h -132.1753 -132.1754 l -2.5746,1.3779 -2.5747,1.3779 -2.5804,5.058 -2.5804,5.0581 -7.4612,52.564 -7.4611,52.5641 -0.7354,3.6666 -0.7354,3.6667 z m -40.9194,-5.3955 -0.9746,-0.062 -17.3334,-5.9092 -17.3333,-5.9092 -5.6135,-2.1186 -5.6136,-2.1186 -2.7198,-4.4007 -2.7198,-4.4007 v -4.9703 -4.9702 l 2.1807,-3.6917 2.1808,-3.6916 3.7564,-2.219 3.7564,-2.219 4.4451,-0.1671 4.4452,-0.1671 19.0271,6.3413 19.0272,6.3413 -0.6872,3.5307 -0.6872,3.5307 -1.4313,10.6667 -1.4313,10.6667 -0.6497,3 -0.6496,3 -0.9746,-0.062 z m 433.6695,0.062 h -0.5934 l -0.6496,-3 -0.6497,-3 -1.4313,-10.6667 -1.4313,-10.6667 -0.6872,-3.5307 -0.6872,-3.5308 19.0272,-6.3412 19.0271,-6.3413 4.4452,0.1671 4.4451,0.1671 3.7564,2.219 3.7564,2.2189 2.1808,3.6917 2.1807,3.6917 v 4.2594 4.2594 l -2.1738,4.581 -2.1738,4.5809 -2.7491,1.4713 -2.7492,1.4713 -21.1249,7.1493 -21.125,7.1493 z m -216.6441,-174.6667 h -69.5131 l 0.6808,-2.3333 0.6807,-2.3334 4.8229,-18.5551 4.8229,-18.5551 1.9421,-3.7556 1.9421,-3.7557 3.9112,-2.0226 3.9113,-2.0225 h 46.7991 46.799 l 3.9113,2.0225 3.9112,2.0226 1.8752,3.6441 1.8752,3.6441 4.8883,18.6667 4.8883,18.6666 0.6823,2.3334 0.6822,2.3333 z"
         id="path3989"
         inkscape:connector-curvature="0"
         sodipodi:nodetypes="cccccccccccccccccccccccccccccccccccccccccccccccccccccccccccccccccccccccccccccccccccccccccccccccccccccccccccccccccccccccccccccccccccccccccccccccccccccccccccccccccccccccccccccccccccccccccccccccccccccccccccccccccccccccccccccccccccccccccccccccccccccccccccccccccccccccccccccccccccccc" />
    </g>
  </g>
</svg>
